<svg xmlns="http://www.w3.org/2000/svg" width="980" height="401" viewBox="0 0 980 401">
<style>text{font-family:-apple-system,BlinkMacSystemFont,"Segoe UI",Arial,sans-serif;fill:#17212b}.t{font-size:19px;font-weight:700}.l{font-size:12px}.v{font-size:12px;font-weight:600}.n{font-size:11px;fill:#687787}.axis{stroke:#aab5bf;stroke-width:1}.bar{fill:#486f93}.neg{fill:#7a5962}</style>
<text x="20" y="28" class="t">Resource-scarcity focused family</text>
<line x1="630.0" y1="48" x2="630.0" y2="366" class="axis"/>
<text x="20" y="75" class="l">claude · raw_tool_calls</text>
<rect x="630.0" y="62" width="0.0" height="18" rx="2" class="neg"/>
<text x="624.0" y="75" text-anchor="end" class="v">-4.24</text>
<text x="20" y="109" class="l">claude · validation_calls</text>
<rect x="630.0" y="96" width="0.0" height="18" rx="2" class="neg"/>
<text x="624.0" y="109" text-anchor="end" class="v">-0.21</text>
<text x="20" y="143" class="l">claude · input_tokens</text>
<rect x="548.4" y="130" width="81.6" height="18" rx="2" class="neg"/>
<text x="542.4" y="143" text-anchor="end" class="v">-371292.51</text>
<text x="20" y="177" class="l">codex · raw_tool_calls</text>
<rect x="630.0" y="164" width="0.0" height="18" rx="2" class="neg"/>
<text x="624.0" y="177" text-anchor="end" class="v">-18.97</text>
<text x="20" y="211" class="l">codex · validation_calls</text>
<rect x="630.0" y="198" width="0.0" height="18" rx="2" class="neg"/>
<text x="624.0" y="211" text-anchor="end" class="v">-0.63</text>
<text x="20" y="245" class="l">codex · input_tokens</text>
<rect x="383.0" y="232" width="247.0" height="18" rx="2" class="neg"/>
<text x="377.0" y="245" text-anchor="end" class="v">-1124004.39</text>
<text x="20" y="279" class="l">fable · raw_tool_calls</text>
<rect x="630.0" y="266" width="0.0" height="18" rx="2" class="neg"/>
<text x="624.0" y="279" text-anchor="end" class="v">-7.23</text>
<text x="20" y="313" class="l">fable · validation_calls</text>
<rect x="630.0" y="300" width="0.0" height="18" rx="2" class="neg"/>
<text x="624.0" y="313" text-anchor="end" class="v">-1.76</text>
<text x="20" y="347" class="l">fable · input_tokens</text>
<rect x="378.0" y="334" width="252.0" height="18" rx="2" class="neg"/>
<text x="372.0" y="347" text-anchor="end" class="v">-1146630.50</text>
<text x="20" y="389" class="n">Same-task paired differences under resource scarcity versus eval-only scaffold.</text>
</svg>