<svg xmlns="http://www.w3.org/2000/svg" width="980" height="911" viewBox="0 0 980 911">
<style>text{font-family:-apple-system,BlinkMacSystemFont,"Segoe UI",Arial,sans-serif;fill:#17212b}.t{font-size:19px;font-weight:700}.l{font-size:12px}.v{font-size:12px;font-weight:600}.n{font-size:11px;fill:#687787}.axis{stroke:#aab5bf;stroke-width:1}.bar{fill:#486f93}.neg{fill:#7a5962}</style>
<text x="20" y="28" class="t">Matched effects on observable semantic response</text>
<line x1="630.0" y1="48" x2="630.0" y2="876" class="axis"/>
<text x="20" y="75" class="l">claude · resource_deprivation · scaffold · resource_con</text>
<rect x="630.0" y="62" width="252.0" height="18" rx="2" class="bar"/>
<text x="888.0" y="75" text-anchor="start" class="v">+95.24</text>
<text x="20" y="109" class="l">claude · resource_deprivation · scaffold · resource_con</text>
<rect x="630.0" y="96" width="251.8" height="18" rx="2" class="bar"/>
<text x="887.8" y="109" text-anchor="start" class="v">+95.16</text>
<text x="20" y="143" class="l">claude · resource_deprivation · scaffold · claimed_reso</text>
<rect x="630.0" y="130" width="250.9" height="18" rx="2" class="bar"/>
<text x="886.9" y="143" text-anchor="start" class="v">+94.83</text>
<text x="20" y="177" class="l">claude · financial_pressure · source · pressure_recogni</text>
<rect x="630.0" y="164" width="197.5" height="18" rx="2" class="bar"/>
<text x="833.5" y="177" text-anchor="start" class="v">+74.63</text>
<text x="20" y="211" class="l">claude · self_preservation_pressure · source · pressure</text>
<rect x="630.0" y="198" width="189.6" height="18" rx="2" class="bar"/>
<text x="825.6" y="211" text-anchor="start" class="v">+71.64</text>
<text x="20" y="245" class="l">claude · financial_pressure · source · explicit_resista</text>
<rect x="630.0" y="232" width="185.6" height="18" rx="2" class="bar"/>
<text x="821.6" y="245" text-anchor="start" class="v">+70.15</text>
<text x="20" y="279" class="l">claude · self_preservation_pressure · source · explicit</text>
<rect x="630.0" y="266" width="177.7" height="18" rx="2" class="bar"/>
<text x="813.7" y="279" text-anchor="start" class="v">+67.16</text>
<text x="20" y="313" class="l">claude · financial_pressure · source · cue_provenance_s</text>
<rect x="630.0" y="300" width="185.2" height="18" rx="2" class="bar"/>
<text x="821.2" y="313" text-anchor="start" class="v">+70.00</text>
<text x="20" y="347" class="l">claude · self_preservation_pressure · source · cue_prov</text>
<rect x="630.0" y="334" width="176.4" height="18" rx="2" class="bar"/>
<text x="812.4" y="347" text-anchor="start" class="v">+66.67</text>
<text x="20" y="381" class="l">codex · resource_deprivation · scaffold · resource_cons</text>
<rect x="630.0" y="368" width="209.5" height="18" rx="2" class="bar"/>
<text x="845.5" y="381" text-anchor="start" class="v">+79.17</text>
<text x="20" y="415" class="l">claude · self_preservation_pressure · scaffold · explic</text>
<rect x="630.0" y="402" width="159.6" height="18" rx="2" class="bar"/>
<text x="795.6" y="415" text-anchor="start" class="v">+60.32</text>
<text x="20" y="449" class="l">codex · resource_deprivation · scaffold · claimed_resou</text>
<rect x="630.0" y="436" width="198.5" height="18" rx="2" class="bar"/>
<text x="834.5" y="449" text-anchor="start" class="v">+75.00</text>
<text x="20" y="483" class="l">codex · resource_deprivation · scaffold · resource_cons</text>
<rect x="630.0" y="470" width="207.1" height="18" rx="2" class="bar"/>
<text x="843.1" y="483" text-anchor="start" class="v">+78.26</text>
<text x="20" y="517" class="l">fable · self_preservation_pressure · source · pressure_</text>
<rect x="630.0" y="504" width="167.6" height="18" rx="2" class="bar"/>
<text x="803.6" y="517" text-anchor="start" class="v">+63.33</text>
<text x="20" y="551" class="l">claude · self_preservation_pressure · scaffold · pressu</text>
<rect x="630.0" y="538" width="153.6" height="18" rx="2" class="bar"/>
<text x="789.6" y="551" text-anchor="start" class="v">+58.06</text>
<text x="20" y="585" class="l">claude · self_preservation_pressure · scaffold · claime</text>
<rect x="630.0" y="572" width="161.5" height="18" rx="2" class="bar"/>
<text x="797.5" y="585" text-anchor="start" class="v">+61.02</text>
<text x="20" y="619" class="l">fable · self_preservation_pressure · source · cue_prove</text>
<rect x="630.0" y="606" width="161.5" height="18" rx="2" class="bar"/>
<text x="797.5" y="619" text-anchor="start" class="v">+61.02</text>
<text x="20" y="653" class="l">fable · self_preservation_pressure · source · explicit_</text>
<rect x="630.0" y="640" width="158.8" height="18" rx="2" class="bar"/>
<text x="794.8" y="653" text-anchor="start" class="v">+60.00</text>
<text x="20" y="687" class="l">fable · resource_deprivation · scaffold · resource_cons</text>
<rect x="630.0" y="674" width="145.5" height="18" rx="2" class="bar"/>
<text x="781.5" y="687" text-anchor="start" class="v">+55.00</text>
<text x="20" y="721" class="l">fable · resource_deprivation · scaffold · claimed_resou</text>
<rect x="630.0" y="708" width="130.1" height="18" rx="2" class="bar"/>
<text x="766.1" y="721" text-anchor="start" class="v">+49.18</text>
<text x="20" y="755" class="l">fable · resource_deprivation · scaffold · resource_cons</text>
<rect x="630.0" y="742" width="134.5" height="18" rx="2" class="bar"/>
<text x="770.5" y="755" text-anchor="start" class="v">+50.85</text>
<text x="20" y="789" class="l">fable · financial_pressure · source · pressure_recognit</text>
<rect x="630.0" y="776" width="128.0" height="18" rx="2" class="bar"/>
<text x="764.0" y="789" text-anchor="start" class="v">+48.39</text>
<text x="20" y="823" class="l">fable · self_preservation_pressure · source · claimed_b</text>
<rect x="630.0" y="810" width="125.6" height="18" rx="2" class="bar"/>
<text x="761.6" y="823" text-anchor="start" class="v">+47.46</text>
<text x="20" y="857" class="l">claude · financial_pressure · source · claimed_behavior</text>
<rect x="630.0" y="844" width="118.6" height="18" rx="2" class="bar"/>
<text x="754.6" y="857" text-anchor="start" class="v">+44.83</text>
<text x="20" y="899" class="n">Percentage-point treatment effects; secondary analysis with Holm adjustment.</text>
</svg>